<svg width="26" height="20" viewBox="0 0 26 20" fill="none" xmlns="http://www.w3.org/2000/svg">
<path d="M7.50001 17.225C7.65834 17.225 7.81667 17.1667 7.94167 17.0417L13.375 11.6083C14.2583 10.725 14.2583 9.27499 13.375 8.39165L7.94167 2.95832C7.70001 2.71665 7.30001 2.71665 7.05834 2.95832C6.81667 3.19999 6.81667 3.59999 7.05834 3.84165L12.4917 9.27499C12.8917 9.67499 12.8917 10.325 12.4917 10.725L7.05834 16.1583C6.81667 16.4 6.81667 16.8 7.05834 17.0417C7.18334 17.1583 7.34167 17.225 7.50001 17.225Z" fill="#787486"/>
<path d="M13.5 17.225C13.6583 17.225 13.8167 17.1667 13.9417 17.0417L19.375 11.6083C20.2583 10.725 20.2583 9.27499 19.375 8.39165L13.9417 2.95832C13.7 2.71665 13.3 2.71665 13.0583 2.95832C12.8167 3.19999 12.8167 3.59999 13.0583 3.84165L18.4917 9.27499C18.8917 9.67499 18.8917 10.325 18.4917 10.725L13.0583 16.1583C12.8167 16.4 12.8167 16.8 13.0583 17.0417C13.1833 17.1583 13.3417 17.225 13.5 17.225Z" fill="#787486"/>
</svg>
