<svg width="16" height="16" viewBox="0 0 16 16" fill="none" xmlns="http://www.w3.org/2000/svg">
<path d="M11.0002 3.68295C13.3829 3.68304 15.3166 5.61755 15.3166 8.00034C15.3164 10.383 13.3828 12.3167 11.0002 12.3167H9.99333C9.63716 12.3167 9.34294 12.0225 9.34294 11.6664C9.34312 11.3103 9.63726 11.0169 9.99333 11.0169H11.0002C12.6638 11.0168 14.0166 9.66395 14.0168 8.00034C14.0168 6.33657 12.6639 4.98383 11.0002 4.98373H10.0002C9.64399 4.98373 9.34978 4.68952 9.34978 4.33334C9.34978 3.97847 9.63602 3.68295 10.0002 3.68295H11.0002Z" fill="#5030E5" stroke="#5030E5" stroke-width="0.3"/>
<path d="M6.00033 3.68295C6.35636 3.68313 6.64974 3.97728 6.64974 4.33334C6.64974 4.68941 6.35636 4.98356 6.00033 4.98373H5.00033C3.3365 4.98373 1.98373 6.33651 1.98373 8.00034C1.9839 9.66401 3.33661 11.0169 5.00033 11.0169H6.00033C6.35625 11.0171 6.64956 11.3104 6.64974 11.6664C6.64974 12.0224 6.35636 12.3166 6.00033 12.3167H5.00033C2.61759 12.3167 0.683121 10.383 0.682945 8.00034C0.682945 5.61749 2.61749 3.68295 5.00033 3.68295H6.00033Z" fill="#5030E5" stroke="#5030E5" stroke-width="0.3"/>
<path d="M10.6663 7.34961C11.0225 7.34961 11.3167 7.64382 11.3167 8C11.3167 8.35618 11.0225 8.65039 10.6663 8.65039H5.33334C4.97716 8.65039 4.68295 8.35618 4.68295 8C4.68295 7.64382 4.97716 7.34961 5.33334 7.34961H10.6663Z" fill="#5030E5" stroke="#5030E5" stroke-width="0.3"/>
</svg>
