<svg width="14" height="3" viewBox="0 0 14 3" fill="none" xmlns="http://www.w3.org/2000/svg">
<path d="M1.48298 2.9375C1.07389 2.9375 0.723507 2.79356 0.43184 2.50568C0.143962 2.2178 0.00191617 1.86932 0.00570405 1.46023C0.00191617 1.05871 0.143962 0.715909 0.43184 0.431818C0.723507 0.143939 1.07389 -2.38419e-07 1.48298 -2.38419e-07C1.86934 -2.38419e-07 2.21025 0.143939 2.5057 0.431818C2.80495 0.715909 2.95646 1.05871 2.96025 1.46023C2.95646 1.73295 2.88449 1.98106 2.74434 2.20455C2.60798 2.42803 2.42805 2.60606 2.20457 2.73864C1.98487 2.87121 1.74434 2.9375 1.48298 2.9375ZM6.8211 2.9375C6.41201 2.9375 6.06163 2.79356 5.76997 2.50568C5.48209 2.2178 5.34004 1.86932 5.34383 1.46023C5.34004 1.05871 5.48209 0.715909 5.76997 0.431818C6.06163 0.143939 6.41201 -2.38419e-07 6.8211 -2.38419e-07C7.20747 -2.38419e-07 7.54837 0.143939 7.84383 0.431818C8.14307 0.715909 8.29459 1.05871 8.29837 1.46023C8.29459 1.73295 8.22262 1.98106 8.08247 2.20455C7.9461 2.42803 7.76618 2.60606 7.54269 2.73864C7.323 2.87121 7.08247 2.9375 6.8211 2.9375ZM12.1592 2.9375C11.7501 2.9375 11.3998 2.79356 11.1081 2.50568C10.8202 2.2178 10.6782 1.86932 10.682 1.46023C10.6782 1.05871 10.8202 0.715909 11.1081 0.431818C11.3998 0.143939 11.7501 -2.38419e-07 12.1592 -2.38419e-07C12.5456 -2.38419e-07 12.8865 0.143939 13.182 0.431818C13.4812 0.715909 13.6327 1.05871 13.6365 1.46023C13.6327 1.73295 13.5607 1.98106 13.4206 2.20455C13.2842 2.42803 13.1043 2.60606 12.8808 2.73864C12.6611 2.87121 12.4206 2.9375 12.1592 2.9375Z" fill="#0D062D"/>
</svg>
